<svg width="38" height="38" viewBox="0 0 38 38" fill="none" xmlns="http://www.w3.org/2000/svg">
    <path
        d="M24.4294 20.3582C26.6767 20.3582 28.5 22.1815 28.5 24.4288C28.5 26.6761 26.6767 28.4995 24.4294 28.4995C22.1821 28.4995 20.3587 26.6761 20.3587 24.4288C20.3587 22.1815 22.1821 20.3582 24.4294 20.3582Z"
        fill="#FF0C0C" />
    <path
        d="M26.1805 9.89752C26.7106 9.36749 27.5714 9.36749 28.1014 9.89752C28.6314 10.4276 28.6314 11.2882 28.1014 11.8182L11.8189 28.1009C11.2889 28.6309 10.428 28.6309 9.89801 28.1009C9.36798 27.5709 9.36798 26.7101 9.89801 26.18L26.1805 9.89752Z"
        fill="#FF0C0C" />
    <path
        d="M13.5743 9.50308C15.8216 9.50308 17.6449 11.3265 17.6449 13.5738C17.6449 15.8211 15.8216 17.6444 13.5743 17.6444C11.327 17.6444 9.50375 15.8211 9.50373 13.5738C9.50373 11.3265 11.327 9.50308 13.5743 9.50308Z"
        fill="#FF0C0C" />
</svg>