<svg width="16" height="18" viewBox="0 0 16 18" fill="none" xmlns="http://www.w3.org/2000/svg">
    <path
        d="M8 0C10.1217 0 12.1569 0.813444 13.6572 2.26172C15.1575 3.70998 16 5.67453 16 7.72266C16 11.4244 11.865 15.4582 9.54102 17.4326C9.11689 17.798 8.56844 18 8 18C7.43156 18 6.88311 17.798 6.45898 17.4326C4.13366 15.4582 1.86352e-05 11.4244 0 7.72266C3.16156e-08 5.67453 0.842544 3.70998 2.34277 2.26172C3.84306 0.813444 5.87827 6.09518e-08 8 0ZM8 5.14844C7.29276 5.14844 6.61435 5.41959 6.11426 5.90234C5.61419 6.3851 5.33301 7.03995 5.33301 7.72266C5.33301 8.40536 5.61418 9.06022 6.11426 9.54297C6.61435 10.0257 7.29276 10.2969 8 10.2969C8.70724 10.2969 9.38564 10.0257 9.88574 9.54297C10.3858 9.06022 10.667 8.40536 10.667 7.72266C10.667 7.03995 10.3858 6.3851 9.88574 5.90234C9.38564 5.41959 8.70724 5.14844 8 5.14844Z"
        fill="#333333" />
</svg>