<svg width="24" height="24" viewBox="0 0 24 24" fill="none" xmlns="http://www.w3.org/2000/svg">
<path d="M8.06644 17.9573C8.8656 17.9576 9.51368 18.6389 9.51371 19.4788C9.51371 20.3187 8.86562 21 8.06644 21.0003C7.26707 21.0003 6.6182 20.3189 6.6182 19.4788C6.61823 18.6387 7.26709 17.9573 8.06644 17.9573ZM15.7852 17.9573C16.5846 17.9573 17.2324 18.6387 17.2325 19.4788C17.2325 20.3189 16.5846 21.0003 15.7852 21.0003C14.9859 21.0001 14.3379 20.3188 14.3379 19.4788C14.338 18.6388 14.9859 17.9574 15.7852 17.9573ZM3.04594 3.49441C3.1858 3.10119 3.60234 2.90149 3.9766 3.04812C5.06353 3.4748 5.9069 3.9173 6.42191 4.70242C6.67953 5.09522 6.83287 5.53895 6.92094 6.03738H17.4932C18.5531 6.03742 19.6785 6.17461 20.375 7.06375C21.0594 7.93753 21.126 9.27869 20.8409 11.0432C20.5506 12.8391 20.0773 14.2497 19.3096 15.219C18.5078 16.2314 17.4439 16.6897 16.168 16.6897H11.4766C10.3071 16.6898 9.34768 16.6903 8.58988 16.5706C7.79018 16.4442 7.11252 16.1708 6.58207 15.5471C6.09914 14.9797 5.84439 14.3808 5.71683 13.552C5.59717 12.7743 5.585 11.7561 5.585 10.3421V7.69168C5.58499 6.48301 5.46844 5.9285 5.23051 5.5657C4.99354 5.20439 4.54474 4.89453 3.47074 4.47293C3.09632 4.32595 2.90608 3.8879 3.04594 3.49441Z" fill="#333333"/>
</svg>
