<svg width="24" height="24" viewBox="0 0 24 24" fill="none" xmlns="http://www.w3.org/2000/svg">
<path d="M4.92837 4.92911C5.24399 4.61349 5.75531 4.61346 6.07095 4.92911L11.9987 10.8568L17.9264 4.93008C18.242 4.61447 18.7534 4.61444 19.069 4.93008C19.3846 5.24573 19.3846 5.75705 19.069 6.07266L13.1422 11.9994L19.07 17.9281C19.3856 18.2438 19.3856 18.7551 19.07 19.0707C18.7544 19.3863 18.243 19.3863 17.9274 19.0707L11.9987 13.143L6.07095 19.0707C5.75533 19.3863 5.24401 19.3863 4.92837 19.0707C4.6128 18.7551 4.61278 18.2437 4.92837 17.9281L10.8561 11.9994L4.92837 6.07168C4.61273 5.75604 4.61275 5.24472 4.92837 4.92911Z" fill="#333333"/>
</svg>
