<svg width="24" height="24" viewBox="0 0 24 24" fill="none" xmlns="http://www.w3.org/2000/svg">
<path fill-rule="evenodd" clip-rule="evenodd" d="M8.19923 3.00002C9.01619 3.00189 9.82446 3.16907 10.5772 3.4922C11.1041 3.71845 11.5967 4.01822 12.041 4.38087C13.126 3.52591 14.4659 3.0575 15.8526 3.06642C17.4851 3.07706 19.0445 3.74806 20.1934 4.92775C21.3416 6.10686 21.9876 7.69948 21.9981 9.35939C22.0084 11.0193 21.3823 12.6204 20.249 13.8145L20.2422 13.8223L14.1143 20.1162C13.5653 20.6798 12.8165 20.9999 12.0322 21C11.2479 21 10.4992 20.6798 9.95021 20.1162L3.82423 13.8252L3.82326 13.8242C3.24619 13.2365 2.7891 12.5382 2.47658 11.7705C2.16389 11.0024 2.0018 10.1792 2.00001 9.34767C1.99824 8.5161 2.1564 7.69147 2.46584 6.92189C2.77528 6.1524 3.23067 5.45186 3.80568 4.86134C4.38063 4.27097 5.06447 3.8022 5.81837 3.48244C6.57261 3.16259 7.38211 2.99818 8.19923 3.00002Z" fill="#333333"/>
</svg>
