<svg width="24" height="24" viewBox="0 0 24 24" fill="none" xmlns="http://www.w3.org/2000/svg">
<path d="M12 3C14.1217 3 16.1569 3.81344 17.6572 5.26172C19.1575 6.70998 20 8.67453 20 10.7227C20 14.4244 15.865 18.4582 13.541 20.4326C13.1169 20.798 12.5684 21 12 21C11.4316 21 10.8831 20.798 10.459 20.4326C8.13366 18.4582 4.00002 14.4244 4 10.7227C4 8.67453 4.84254 6.70998 6.34277 5.26172C7.84306 3.81344 9.87827 3 12 3ZM12 8.14844C11.2928 8.14844 10.6144 8.41959 10.1143 8.90234C9.61419 9.3851 9.33301 10.04 9.33301 10.7227C9.33301 11.4054 9.61418 12.0602 10.1143 12.543C10.6144 13.0257 11.2928 13.2969 12 13.2969C12.7072 13.2969 13.3856 13.0257 13.8857 12.543C14.3858 12.0602 14.667 11.4054 14.667 10.7227C14.667 10.04 14.3858 9.3851 13.8857 8.90234C13.3856 8.41959 12.7072 8.14844 12 8.14844Z" fill="#333333"/>
</svg>
