<svg width="150" height="28" viewBox="0 0 150 28" fill="none" xmlns="http://www.w3.org/2000/svg">
<path d="M1.1637 0.4886H28.8891C19.6527 13.1483 14.8053 20.1353 14.3478 21.4493H28.89V27.9997H0L14.5422 7.03894H1.1637V0.4886ZM41.2992 22.5717C41.2341 23.0623 39.3371 27.8785 39.1653 27.9997H30.2472V27.625L42.8499 0.489471H52.3503L64.953 27.9997H56.0349C55.911 27.4908 54.0846 22.7007 53.901 22.5717H41.2992ZM51.7689 17.7067V17.332C49.7055 12.453 48.3483 9.27147 47.6973 7.78747H47.5038L43.6248 17.7067H51.7689ZM68.4441 0.4886H76.3938L85.1193 10.7816L93.843 0.4886H101.792V27.9988H93.0672V12.2787L85.311 21.4493L76.9743 12.2787V27.9988H68.4432L68.4441 0.4886ZM116.917 0.4886L125.643 10.7816L134.172 0.4886H142.122V27.9988H133.396V12.2787L125.641 21.4493L117.304 12.2787V27.9988H108.773V0.489471L116.917 0.4886ZM146.513 6.9457C146.055 6.94513 145.601 6.85753 145.178 6.68791C144.755 6.51829 144.37 6.26997 144.046 5.95713C143.723 5.64429 143.466 5.27307 143.291 4.86465C143.117 4.45624 143.027 4.01864 143.028 3.57685C143.027 3.13506 143.117 2.69747 143.291 2.28905C143.466 1.88064 143.723 1.50941 144.046 1.19658C144.37 0.883739 144.755 0.635418 145.178 0.465798C145.601 0.296177 146.055 0.20858 146.513 0.208008C146.972 0.208465 147.426 0.295978 147.849 0.465548C148.273 0.635117 148.657 0.88342 148.981 1.19627C149.305 1.50912 149.561 1.88038 149.736 2.28885C149.911 2.69732 150.001 3.13499 150 3.57685C150.001 4.01872 149.911 4.45638 149.736 4.86485C149.561 5.27332 149.305 5.64459 148.981 5.95744C148.657 6.27029 148.273 6.51859 147.849 6.68816C147.426 6.85773 146.972 6.94524 146.513 6.9457ZM146.513 6.19629C146.87 6.19595 147.223 6.12792 147.552 5.9961C147.882 5.86427 148.181 5.67123 148.433 5.42799C148.685 5.18476 148.884 4.89609 149.02 4.57847C149.156 4.26085 149.226 3.9205 149.226 3.57685C149.226 3.23313 149.157 2.89269 149.021 2.57497C148.885 2.25725 148.685 1.96848 148.433 1.72515C148.181 1.48182 147.882 1.2887 147.553 1.15682C147.223 1.02494 146.87 0.956886 146.513 0.956543C145.793 0.957698 145.103 1.23439 144.595 1.72576C144.087 2.21714 143.802 2.88298 143.803 3.57685C143.802 4.27058 144.087 4.93619 144.595 5.42738C145.104 5.91857 145.794 6.19514 146.513 6.19629ZM146.474 3.89927H146.024V5.07392H145.194V1.74778H146.55C146.957 1.74778 147.277 1.83492 147.507 2.01007C147.737 2.18522 147.852 2.4327 147.852 2.75251C147.852 2.9843 147.804 3.17601 147.707 3.3285C147.596 3.49244 147.438 3.62126 147.251 3.69885L147.97 5.03994V5.07392H147.081L146.474 3.89927ZM146.024 3.28058H146.549C146.707 3.28058 146.825 3.24049 146.905 3.16032C146.989 3.06838 147.032 2.94806 147.024 2.8257C147.032 2.70271 146.988 2.58188 146.904 2.48934C146.823 2.40743 146.705 2.36735 146.55 2.36735H146.025L146.024 3.28058Z" fill="#333333"/>
</svg>
