<svg width="24" height="24" viewBox="0 0 24 24" fill="none" xmlns="http://www.w3.org/2000/svg">
<path fill-rule="evenodd" clip-rule="evenodd" d="M17.1439 13.2875C19.2729 13.2877 21.0004 15.0149 21.0004 17.1439C21.0002 19.2727 19.2727 21.0002 17.1439 21.0004C15.0149 21.0004 13.2877 19.2729 13.2875 17.1439C13.2875 15.0148 15.0148 13.2875 17.1439 13.2875ZM18.8031 3.37634C19.3052 2.87463 20.1204 2.87448 20.6224 3.37634C21.1246 3.87849 21.1246 4.69451 20.6224 5.19665L5.19665 20.6224C4.69451 21.1246 3.87849 21.1246 3.37634 20.6224C2.87448 20.1204 2.87463 19.3052 3.37634 18.8031L18.8031 3.37634ZM6.85974 3.00329C8.98876 3.00339 10.7162 4.73069 10.7162 6.85974C10.7161 8.9887 8.9887 10.7161 6.85974 10.7162C4.73069 10.7162 3.00339 8.98876 3.00329 6.85974C3.00329 4.73063 4.73063 3.00329 6.85974 3.00329Z" fill="#FF0C0C"/>
</svg>
