<svg width="24" height="24" viewBox="0 0 24 24" fill="none" xmlns="http://www.w3.org/2000/svg">
    <g clip-path="url(#clip0_19132_8496)">
        <mask id="mask0_19132_8496" style="mask-type:luminance" maskUnits="userSpaceOnUse" x="0" y="0" width="24"
            height="24">
            <path
                d="M18.0099 0.380859H5.95043C2.79556 0.380859 0.238037 2.93839 0.238037 6.09325V18.1528C0.238037 21.3076 2.79556 23.8651 5.95043 23.8651H18.0099C21.1648 23.8651 23.7223 21.3076 23.7223 18.1528V6.09325C23.7223 2.93839 21.1648 0.380859 18.0099 0.380859Z"
                fill="white" />
        </mask>
        <g mask="url(#mask0_19132_8496)">
            <path d="M23.7805 0.380859H0.238037V23.9233H23.7805V0.380859Z" fill="#333333" />
            <path
                d="M23.7214 12.123C30.2064 12.123 35.4635 6.86582 35.4635 0.380809C35.4635 -6.10421 30.2064 -11.3613 23.7214 -11.3613C17.2364 -11.3613 11.9792 -6.10421 11.9792 0.380809C11.9792 6.86582 17.2364 12.123 23.7214 12.123Z"
                fill="#F7F7F7" />
            <path
                d="M14.7443 11.5869H7.80618V8.84141H14.7443C15.1496 8.84141 15.4313 8.91205 15.5728 9.03541C15.7142 9.15876 15.8018 9.38755 15.8018 9.72173V10.7076C15.8018 11.0598 15.7142 11.2885 15.5728 11.4119C15.4313 11.5353 15.1496 11.588 14.7443 11.588V11.5869ZM15.2202 6.25301H4.86377V17.9941H7.80618V14.1742H13.2287L15.8018 17.9941H19.0967L16.2598 14.1564C17.3056 14.0013 17.7754 13.6808 18.1626 13.1526C18.55 12.6244 18.7442 11.7799 18.7442 10.6527V9.77242C18.7442 9.10393 18.6735 8.57571 18.55 8.17085C18.4265 7.76598 18.2154 7.41383 17.9157 7.09753C17.5991 6.7981 17.2466 6.58723 16.8233 6.44595C16.4002 6.3226 15.8714 6.25195 15.2202 6.25195V6.25301Z"
                fill="#F7F7F7" />
        </g>
    </g>
    <defs>
        <clipPath id="clip0_19132_8496">
            <rect width="24" height="24" fill="white" />
        </clipPath>
    </defs>
</svg>