<svg width="24" height="24" viewBox="0 0 24 24" fill="none" xmlns="http://www.w3.org/2000/svg">
<path fill-rule="evenodd" clip-rule="evenodd" d="M17.9261 4.93008C18.2417 4.61447 18.754 4.61444 19.0697 4.93008C19.3851 5.24566 19.385 5.75709 19.0697 6.07266L13.1419 12.0004L19.0706 17.9281C19.386 18.2436 19.3859 18.7551 19.0706 19.0707C18.755 19.3863 18.2427 19.3863 17.9271 19.0707L11.9994 13.143L6.07162 19.0717C5.75602 19.3872 5.24368 19.3872 4.92807 19.0717C4.61246 18.7561 4.61257 18.2438 4.92807 17.9281L10.8558 12.0004L4.92807 6.07168C4.61278 5.75607 4.6127 5.24464 4.92807 4.92911C5.24369 4.61349 5.75598 4.61346 6.07162 4.92911L11.9994 10.8568L17.9261 4.93008Z" fill="#333333"/>
</svg>
