<svg width="24" height="24" viewBox="0 0 24 24" fill="none" xmlns="http://www.w3.org/2000/svg">
<g clip-path="url(#clip0_19132_8489)">
<path d="M12 0C18.6274 0 24 5.37258 24 12C24 18.6274 18.6274 24 12 24C5.37258 24 0 18.6274 0 12C0 5.37258 5.37258 0 12 0ZM18.04 6.3916C18.0223 5.6451 17.0202 6.08962 17.0088 6.09473L4.58496 10.9707C4.57725 10.9734 3.99091 11.1823 4.04297 11.5469C4.09556 11.9137 4.56738 12.0889 4.56738 12.0889L7.69531 13.1367C7.70449 13.1668 8.63978 16.233 8.83105 16.8242C9.00574 17.4005 9.16309 17.418 9.16309 17.418C9.33392 17.4862 9.48841 17.3713 9.49512 17.3662L11.5215 15.5312L14.667 17.9424C15.4977 18.3057 15.8144 17.5544 15.8203 17.54L18.04 6.3916ZM15.209 8.36621C15.2191 8.36018 15.6448 8.10778 15.6279 8.36621C15.6309 8.3679 15.6926 8.40747 15.4707 8.64648C15.2543 8.86214 10.3159 13.295 9.65234 13.8887C9.6 13.9236 9.56445 13.9761 9.56445 14.0459L9.37305 15.6885C9.33787 15.8627 9.11031 15.8802 9.05762 15.7236L8.23633 13.0322C8.20144 12.9274 8.23708 12.8052 8.3418 12.7354L15.209 8.36621Z" fill="#333333"/>
</g>
<defs>
<clipPath id="clip0_19132_8489">
<rect width="24" height="24" fill="white"/>
</clipPath>
</defs>
</svg>
