<svg width="24" height="24" viewBox="0 0 24 24" fill="none" xmlns="http://www.w3.org/2000/svg">
<path fill-rule="evenodd" clip-rule="evenodd" d="M12.0001 11.5C14.105 11.5 16.0488 11.9835 17.4932 12.8047C18.9157 13.6134 19.9999 14.8481 20.0001 16.3779V16.4814C20.0014 17.5345 20.0028 18.6435 18.8165 19.6201C18.2312 20.1019 17.4174 20.4393 16.3331 20.6611C15.2458 20.8836 13.8334 21 12.0001 21C10.1667 21 8.75442 20.8836 7.66708 20.6611C6.58296 20.4393 5.76989 20.1017 5.18465 19.6201C3.99783 18.6432 3.9988 17.5338 4.00008 16.4805V16.3779C4.00028 14.8481 5.08449 13.6134 6.50692 12.8047C7.9514 11.9835 9.89518 11.5 12.0001 11.5ZM12.0001 3C14.2092 3 16.0001 4.79086 16.0001 7C16.0001 9.20914 14.2092 11 12.0001 11C9.79094 11 8.00008 9.20914 8.00008 7C8.00009 4.79086 9.79095 3 12.0001 3Z" fill="#333333"/>
</svg>
