<svg width="24" height="24" viewBox="0 0 24 24" fill="none" xmlns="http://www.w3.org/2000/svg">
<g clip-path="url(#clip0_19132_8482)">
<path d="M12 0C18.6274 0 24 5.37258 24 12C24 18.6274 18.6274 24 12 24C5.37258 24 0 18.6274 0 12C0 5.37258 5.37258 0 12 0ZM4.60059 7.62402C4.10047 7.62402 4 7.85946 4 8.11914C4.00011 8.58303 4.59326 10.8829 6.7627 13.9238C8.20919 16.0004 10.2472 17.1258 12.1016 17.126C13.2143 17.126 13.3525 16.876 13.3525 16.4453V14.876C13.3525 14.376 13.4575 14.2754 13.8096 14.2754C14.0694 14.2754 14.5142 14.4059 15.5527 15.4072C16.7395 16.5939 16.9359 17.126 17.6035 17.126H19.3535C19.8535 17.126 20.104 16.8761 19.96 16.3828C19.8022 15.8909 19.2353 15.177 18.4834 14.3311C18.0756 13.849 17.4638 13.3299 17.2783 13.0703C17.0187 12.7365 17.0928 12.5885 17.2783 12.292C17.2783 12.292 19.4099 9.28784 19.6328 8.26758C19.7441 7.89674 19.6329 7.62402 19.1035 7.62402H17.3535C16.9084 7.62402 16.7031 7.85946 16.5918 8.11914C16.586 8.13317 15.6974 10.2935 14.4404 11.6982C14.0326 12.1061 13.8466 12.2354 13.624 12.2354C13.5128 12.235 13.3526 12.1055 13.3525 11.7354V8.26758C13.3525 7.82266 13.2231 7.62419 12.8525 7.62402H10.1016C9.8235 7.62402 9.65625 7.83057 9.65625 8.02637C9.65637 8.44824 10.2866 8.54576 10.3516 9.73242V12.3096C10.3516 12.8743 10.2496 12.9774 10.0273 12.9775C9.43397 12.9775 7.99 10.7983 7.13379 8.30469C6.966 7.81996 6.79791 7.62403 6.35059 7.62402H4.60059Z" fill="#333333"/>
</g>
<defs>
<clipPath id="clip0_19132_8482">
<rect width="24" height="24" fill="white"/>
</clipPath>
</defs>
</svg>
